<svg width="68" height="68" viewBox="0 0 68 68" fill="none" xmlns="http://www.w3.org/2000/svg">
<path d="M52.7 28.3083L29.6083 5.21668C28.9 4.50834 27.9083 4.08334 26.9167 4.08334C25.925 4.08334 24.9333 4.50834 24.225 5.21668L19.2667 10.175L25.075 15.9833C25.6417 15.7 26.2083 15.5583 26.9167 15.5583C29.325 15.5583 31.1667 17.4 31.1667 19.8083C31.1667 20.5167 31.025 21.0833 30.7417 21.65L36.4083 27.3167C36.975 27.0333 37.5417 26.8917 38.25 26.8917C40.6583 26.8917 42.5 28.7333 42.5 31.1417C42.5 33.55 40.6583 35.3917 38.25 35.3917C35.8417 35.3917 34 33.55 34 31.1417C34 30.4333 34.1417 29.8667 34.425 29.3L28.7583 23.6333C28.6167 23.6333 28.475 23.775 28.3333 23.775V38.5083C30.0333 39.075 31.1667 40.6333 31.1667 42.475C31.1667 44.8833 29.325 46.725 26.9167 46.725C24.5083 46.725 22.6667 44.8833 22.6667 42.475C22.6667 40.6333 23.8 39.075 25.5 38.5083V23.6333C23.8 23.0667 22.6667 21.5083 22.6667 19.6667C22.6667 18.9583 22.8083 18.3917 23.0917 17.825L17.2833 12.0167L1.13333 28.3083C0.425 29.0167 0 30.0083 0 31C0 31.9917 0.425 32.9833 1.13333 33.6917L24.225 56.7833C24.9333 57.4917 25.925 57.9167 26.9167 57.9167C27.9083 57.9167 28.9 57.4917 29.6083 56.7833L52.7 33.6917C53.4083 32.9833 53.8333 31.9917 53.8333 31C53.8333 30.0083 53.4083 29.0167 52.7 28.3083Z" fill="#F4511E"/>
</svg>
