<svg width="68" height="68" viewBox="0 0 68 68" fill="none" xmlns="http://www.w3.org/2000/svg">
<path d="M58.0833 3.08334H9.91667L14.1667 51.25L34 56.9167L53.8333 51.25L58.0833 3.08334Z" fill="#E65100"/>
<path d="M34 7.33334V52.525L49.8667 47.9917L53.4083 7.33334H34Z" fill="#FF6D00"/>
<path d="M34 31.4167V25.75H46.1833L45.1917 42.0417L34 45.725V39.775L39.8083 37.7917L40.2333 31.4167H34ZM46.6083 20.0833L47.0333 14.4167H34V20.0833H46.6083Z" fill="white"/>
<path d="M34 39.775V45.725L22.8083 42.0417L22.2417 34.25H27.9083L28.1917 37.7917L34 39.775ZM27.0583 20.0833H34V14.4167H21.1083L22.1 31.4167H34V25.75H27.4833L27.0583 20.0833Z" fill="#EEEEEE"/>
</svg>
