<svg width="68" height="68" viewBox="0 0 68 68" fill="none" xmlns="http://www.w3.org/2000/svg">
<g clip-path="url(#clip0_10_81)">
<path d="M0 47V-4H51V47H0Z" fill="#FFD600"/>
<path d="M33.3455 34.1749C34.3258 35.7672 35.3912 37.293 37.6479 37.293C39.5434 37.293 40.5379 36.3509 40.5379 35.0476C40.5379 33.4878 39.5094 32.9339 37.4241 32.0258L36.2808 31.5385C32.9814 30.1388 30.787 28.385 30.787 24.6804C30.787 21.2662 33.4008 18.6681 37.485 18.6681C40.3934 18.6681 42.483 19.6753 43.9903 22.3132L40.4288 24.5897C39.6454 23.1901 38.7983 22.639 37.485 22.639C36.1448 22.639 35.2963 23.4847 35.2963 24.5897C35.2963 25.9554 36.1463 26.5079 38.1084 27.3537L39.2516 27.841C43.1403 29.4971 45.3333 31.1886 45.3333 34.9909C45.3333 39.0879 42.0977 41.3333 37.7542 41.3333C33.5056 41.3333 31.093 39.2012 29.75 36.562L33.3455 34.1749ZM16.932 34.2911C17.6488 35.5746 18.7383 36.562 20.3051 36.562C21.8039 36.562 22.6667 35.9698 22.6667 33.6677V18.6667H27.3884V34.3931C27.3884 39.163 24.6217 41.3333 20.5813 41.3333C16.9306 41.3333 14.2956 38.8598 13.2218 36.562L16.932 34.2911Z" fill="#000001"/>
</g>
<defs>
<clipPath id="clip0_10_81">
<rect width="68" height="68" fill="white"/>
</clipPath>
</defs>
</svg>
