<svg width="68" height="68" viewBox="0 0 68 68" fill="none" xmlns="http://www.w3.org/2000/svg">
<g clip-path="url(#clip0_10_86)">
<path d="M32.5833 42.2776C14.3083 42.2776 0 36.0443 0 28.1109C0 20.1776 14.3083 13.9443 32.5833 13.9443C50.8583 13.9443 65.1667 20.1776 65.1667 28.1109C65.1667 36.0443 50.8583 42.2776 32.5833 42.2776ZM32.5833 16.7776C14.7333 16.7776 2.83333 22.5859 2.83333 28.1109C2.83333 33.6359 14.7333 39.4443 32.5833 39.4443C50.4333 39.4443 62.3333 33.6359 62.3333 28.1109C62.3333 22.5859 50.4333 16.7776 32.5833 16.7776Z" fill="#80DEEA"/>
<path d="M19.975 57.2943C18.5584 57.2943 17.425 57.011 16.2917 56.3026C9.35002 52.336 11.1917 36.8943 20.2584 21.0276C24.5084 13.661 29.75 7.42762 34.85 3.46096C40.375 -0.789041 45.3334 -2.06404 48.7334 -0.0807082C52.275 1.90263 53.55 6.86096 52.7 13.8026C51.85 20.3193 49.0167 27.9693 44.7667 35.336C40.5167 42.7026 35.275 48.936 30.175 52.9026C26.4917 55.736 22.95 57.2943 19.975 57.2943ZM45.1917 1.76096C42.925 1.76096 39.95 3.03596 36.6917 5.58596C31.875 9.41096 26.9167 15.361 22.8084 22.4443C13.8834 37.886 13.0334 51.2026 17.7084 53.8943C20.1167 55.311 24.0834 54.036 28.475 50.636C33.2917 46.811 38.25 40.861 42.3584 33.7776C46.4667 26.6943 49.1584 19.4693 50.0084 13.3776C50.7167 7.71096 49.8667 3.74429 47.4584 2.32763C46.75 2.04429 46.0417 1.76096 45.1917 1.76096Z" fill="#80DEEA"/>
<path d="M45.3333 57.2943C38.25 57.2943 28.05 48.6526 20.4 35.1943C11.1916 19.3276 9.34998 3.88594 16.2916 -0.0807272C23.2333 -4.04739 35.7 5.16094 44.9083 21.0276C49.1583 28.3943 51.9916 36.0443 52.8416 42.5609C53.8333 49.5026 52.4166 54.3193 48.875 56.4443C47.7416 57.0109 46.6083 57.2943 45.3333 57.2943ZM17.7083 2.32761C13.0333 5.01927 13.8833 18.3359 22.8083 33.7776C31.7333 49.2193 42.7833 56.5859 47.4583 53.8943C49.8666 52.4776 50.7166 48.5109 50.0083 42.8443C49.1583 36.7526 46.4666 29.5276 42.3583 22.4443C33.4333 7.00261 22.3833 -0.36406 17.7083 2.32761Z" fill="#80DEEA"/>
<path d="M32.5833 33.7776C35.7129 33.7776 38.25 31.2406 38.25 28.1109C38.25 24.9813 35.7129 22.4443 32.5833 22.4443C29.4537 22.4443 26.9167 24.9813 26.9167 28.1109C26.9167 31.2406 29.4537 33.7776 32.5833 33.7776Z" fill="#80DEEA"/>
</g>
<defs>
<clipPath id="clip0_10_86">
<rect width="68" height="68" fill="white"/>
</clipPath>
</defs>
</svg>
