<svg width="242" height="90" viewBox="0 0 242 90" fill="none" xmlns="http://www.w3.org/2000/svg">
<g clip-path="url(#clip0_17_181)">
<path d="M124.94 29.81L136.453 29.0648C136.716 30.9498 137.198 32.3526 137.986 33.3609C139.255 34.9391 141.006 35.7282 143.326 35.7282C145.034 35.7282 146.391 35.3336 147.31 34.5007C148.186 33.8431 148.711 32.791 148.711 31.6951C148.711 30.6429 148.229 29.6347 147.398 28.9771C146.522 28.188 144.465 27.3989 141.225 26.6975C135.928 25.5139 132.119 23.9357 129.887 21.9191C127.654 20.0341 126.385 17.2723 126.472 14.3351C126.472 12.3185 127.085 10.302 128.223 8.63613C129.537 6.75108 131.331 5.26058 133.476 4.42765C135.797 3.41937 139.036 2.89331 143.107 2.89331C148.098 2.89331 151.907 3.81391 154.533 5.69896C157.16 7.54017 158.736 10.5212 159.217 14.5981L147.835 15.2557C147.529 13.5022 146.916 12.2309 145.909 11.3979C144.902 10.565 143.589 10.1705 141.882 10.1705C140.481 10.1705 139.43 10.4773 138.73 11.0472C138.073 11.5733 137.635 12.3624 137.679 13.2391C137.679 13.8967 138.029 14.5105 138.555 14.905C139.124 15.4311 140.481 15.9133 142.626 16.3517C147.923 17.4915 151.688 18.6313 154.008 19.8149C156.328 20.9985 157.992 22.4452 158.999 24.1549C160.049 25.9084 160.575 27.925 160.531 29.9854C160.531 32.4403 159.83 34.8953 158.429 36.9557C156.985 39.1037 154.971 40.7696 152.607 41.7779C150.112 42.8738 146.96 43.4437 143.195 43.4437C136.541 43.4437 131.944 42.1724 129.361 39.586C126.779 36.9995 125.246 33.7555 124.94 29.81ZM2.75796 42.7862V3.59472H22.9392C26.6603 3.59472 29.5496 3.90159 31.5195 4.55917C33.4457 5.1729 35.153 6.44421 36.2912 8.1539C37.5608 10.039 38.1737 12.2309 38.1299 14.5105C38.2612 18.3682 36.2912 22.0506 32.9204 23.9795C31.6071 24.7248 30.1624 25.2508 28.674 25.5139C29.7685 25.8207 30.8629 26.3468 31.826 26.9605C32.5702 27.5743 33.1831 28.2757 33.7522 29.0209C34.4088 29.7662 34.9779 30.5991 35.4595 31.4759L41.3256 42.83H27.5796L21.1006 30.7745C20.2688 29.2401 19.5684 28.2318 18.9117 27.7496C18.0362 27.1359 16.9855 26.829 15.9349 26.829H14.8842V42.7423H2.75796V42.7862ZM14.8842 19.4642H20.0062C21.1006 19.3765 22.1512 19.2012 23.2019 18.9381C23.9899 18.8066 24.6903 18.3682 25.1719 17.7107C26.3538 16.1325 26.1787 13.8967 24.7341 12.5377C23.9461 11.8802 22.4139 11.5295 20.225 11.5295H14.8842V19.4642ZM0 76.3663L11.5134 75.621C11.776 77.5061 12.2576 78.9089 13.0456 79.9172C14.2713 81.4954 16.0662 82.3283 18.3864 82.3283C20.0937 82.3283 21.4508 81.9337 22.3701 81.1008C23.2457 80.3994 23.771 79.3911 23.771 78.2952C23.771 77.243 23.2894 76.2348 22.4577 75.5772C21.5821 74.7881 19.5246 73.999 16.2413 73.2976C10.9443 72.114 7.13567 70.5358 4.90304 68.5192C2.67041 66.6342 1.40087 63.8724 1.48842 60.9352C1.48842 58.9186 2.1013 56.9021 3.23951 55.2362C4.55282 53.3512 6.34768 51.8607 8.49276 51.0278C10.813 50.0195 14.0525 49.4934 18.1237 49.4934C23.1143 49.4934 26.9229 50.414 29.5496 52.2991C32.1762 54.1841 33.7084 57.1213 34.1899 61.1982L22.8079 61.8558C22.5014 60.1023 21.8886 58.831 20.8817 57.998C19.9186 57.1651 18.5615 56.7706 16.8542 56.8144C15.4533 56.8144 14.4027 57.1213 13.7022 57.735C13.0018 58.2611 12.6078 59.0502 12.6516 59.9269C12.6516 60.5845 13.0018 61.1982 13.5271 61.5928C14.0962 62.1188 15.4533 62.6011 17.5984 63.0394C22.8954 64.1792 26.6603 65.319 28.9805 66.5027C31.3006 67.6863 32.9642 69.133 33.9711 70.8427C35.0217 72.5962 35.547 74.6127 35.547 76.6293C35.547 79.0843 34.8028 81.4954 33.4457 83.5558C32.0011 85.7038 29.9873 87.3697 27.6234 88.378C25.1281 89.4739 21.9761 90.0438 18.2113 90.0438C11.5572 90.0438 6.96056 88.7725 4.37771 86.1861C1.79486 83.5558 0.350217 80.3117 0 76.3663H0Z" fill="black"/>
<path d="M58.2236 73.2976L68.8177 76.4978C68.2486 79.1719 67.0666 81.7145 65.4468 83.9503C63.9584 85.923 61.9884 87.4574 59.7558 88.4656C57.4794 89.4739 54.5901 90 51.0879 90C46.8416 90 43.3394 89.3862 40.669 88.1588C37.9548 86.9313 35.6346 84.7394 33.6646 81.6269C31.6947 78.5144 30.7316 74.5251 30.7316 69.659C30.7316 63.1709 32.4389 58.1734 35.8973 54.7102C39.3557 51.2469 44.2149 49.4934 50.5188 49.4934C55.4657 49.4934 59.318 50.5017 62.1636 52.4744C64.9653 54.491 67.0666 57.5597 68.4675 61.6804L57.7858 64.0477C57.5232 63.1271 57.1292 62.2065 56.6039 61.4174C55.9472 60.4968 55.1154 59.7954 54.1086 59.2693C53.1017 58.7433 51.9635 58.5241 50.8253 58.5241C48.0673 58.5241 45.966 59.6201 44.5214 61.8558C43.4269 63.4778 42.8578 66.0643 42.8578 69.5713C42.8578 73.9113 43.5145 76.8923 44.8278 78.5144C46.1411 80.1364 47.9798 80.9255 50.3875 80.9255C52.7077 80.9255 54.4588 80.2679 55.6408 78.9966C56.8227 77.6376 57.6983 75.7525 58.2236 73.2976ZM82.9577 50.151H95.0402V63.8724H108.261V50.151H120.431V89.3424H108.261V73.473H95.0402V89.3424H82.9577V50.151Z" fill="black"/>
<path d="M118.767 69.7467C118.767 63.3463 120.562 58.3488 124.108 54.7979C127.654 51.247 132.645 49.4496 138.992 49.4496C145.515 49.4496 150.506 51.2031 154.052 54.7102C157.598 58.2172 159.349 63.1271 159.349 69.4398C159.349 74.0429 158.561 77.7691 157.029 80.7063C155.54 83.5996 153.22 85.9669 150.374 87.5451C147.441 89.1671 143.808 90 139.474 90C135.052 90 131.419 89.2986 128.53 87.8958C125.553 86.4053 123.101 84.0818 121.482 81.2323C119.687 78.1637 118.767 74.3497 118.767 69.7467ZM130.85 69.7905C130.85 73.736 131.594 76.5855 133.039 78.339C134.483 80.0487 136.497 80.9255 139.036 80.9255C141.619 80.9255 143.633 80.0925 145.077 78.3829C146.522 76.6732 147.222 73.6483 147.222 69.2645C147.222 65.5821 146.478 62.8641 144.99 61.1982C143.501 59.4886 141.488 58.6556 138.949 58.6556C136.716 58.5679 134.571 59.5324 133.082 61.2421C131.594 62.9518 130.85 65.8013 130.85 69.7905ZM171.738 69.7467C171.738 63.3463 173.533 58.3488 177.078 54.7979C180.624 51.247 185.615 49.4496 191.963 49.4496C198.486 49.4496 203.52 51.2031 207.022 54.7102C210.524 58.2172 212.319 63.1271 212.319 69.4398C212.319 74.0429 211.531 77.7691 209.999 80.7063C208.51 83.5996 206.19 85.9669 203.345 87.5451C200.412 89.1671 196.778 90 192.444 90C188.023 90 184.389 89.2986 181.5 87.8958C178.523 86.4053 176.072 84.0818 174.452 81.2323C172.657 78.1637 171.738 74.3497 171.738 69.7467ZM183.82 69.7905C183.82 73.736 184.564 76.5855 186.009 78.339C187.454 80.0487 189.467 80.9255 192.006 80.9255C194.589 80.9255 196.603 80.0925 198.048 78.3829C199.492 76.6732 200.193 73.6483 200.193 69.2645C200.193 65.5821 199.449 62.8641 197.96 61.1982C196.472 59.4886 194.458 58.6556 191.919 58.6556C189.686 58.5679 187.497 59.5324 186.053 61.2421C184.564 62.9518 183.82 65.8013 183.82 69.7905Z" fill="black"/>
<path d="M211.05 50.151H223.132V79.698H242V89.3424H211.006V50.151H211.05Z" fill="black"/>
<path d="M197.732 47.8892C209.896 38.7095 213.648 23.1483 206.11 13.1325C198.573 3.11658 182.602 2.43875 170.437 11.6185C158.273 20.7982 154.522 36.3593 162.059 46.3752C169.596 56.3911 185.567 57.0689 197.732 47.8892Z" fill="white"/>
<path d="M131.036 24.7864L193.897 -22.6505L237.395 35.1516L174.534 82.5885L131.036 24.7864Z" fill="white"/>
<path d="M197.732 47.8892C209.897 38.7095 213.648 23.1483 206.11 13.1325C198.573 3.11658 182.602 2.43875 170.437 11.6185C158.273 20.7982 154.522 36.3593 162.059 46.3752C169.596 56.3911 185.568 57.0689 197.732 47.8892Z" fill="white"/>
<path d="M148.541 28.646L192.558 -4.56963L219.878 31.7366L175.861 64.9522L148.541 28.646Z" fill="white"/>
<path d="M197.732 47.8892C209.897 38.7095 213.648 23.1483 206.11 13.1325C198.573 3.11658 182.602 2.43875 170.437 11.6185C158.273 20.7982 154.522 36.3593 162.059 46.3752C169.596 56.3911 185.568 57.0689 197.732 47.8892Z" fill="white" stroke="black" stroke-width="4" stroke-miterlimit="10"/>
<path d="M148.541 28.646L192.558 -4.56963L219.878 31.7366L175.861 64.9522L148.541 28.646Z" stroke="black" stroke-width="4" stroke-miterlimit="10"/>
<path d="M197.732 47.8892C209.897 38.7095 213.648 23.1483 206.11 13.1325C198.573 3.11658 182.602 2.43875 170.437 11.6185C158.273 20.7982 154.522 36.3593 162.059 46.3752C169.596 56.3911 185.568 57.0689 197.732 47.8892Z" stroke="black" stroke-width="4" stroke-miterlimit="10"/>
<path d="M148.541 28.646L192.558 -4.56963L219.878 31.7366L175.861 64.9522L148.541 28.646Z" fill="white"/>
<path d="M197.732 47.8892C209.897 38.7095 213.648 23.1483 206.11 13.1325C198.573 3.11658 182.602 2.43875 170.437 11.6185C158.273 20.7982 154.522 36.3593 162.059 46.3752C169.596 56.3911 185.568 57.0689 197.732 47.8892Z" fill="white" stroke="black" stroke-width="4" stroke-miterlimit="10"/>
<path d="M148.541 28.646L192.558 -4.56963L219.878 31.7366L175.861 64.9522L148.541 28.646Z" stroke="black" stroke-width="4" stroke-miterlimit="10"/>
<path d="M131.036 24.7864L193.897 -22.6505L237.395 35.1516L174.534 82.5885L131.036 24.7864Z" stroke="black" stroke-width="4" stroke-miterlimit="10"/>
<path d="M197.732 47.8892C209.897 38.7095 213.648 23.1483 206.11 13.1325C198.573 3.11658 182.602 2.43875 170.437 11.6185C158.273 20.7982 154.522 36.3593 162.059 46.3752C169.596 56.3911 185.568 57.0689 197.732 47.8892Z" stroke="black" stroke-width="4" stroke-miterlimit="10"/>
<path d="M171.782 26.8729L176.159 23.8042L181.544 31.4759C182.463 32.7034 183.164 34.0185 183.689 35.4652C183.995 36.5612 183.908 37.7448 183.47 38.7969C182.901 40.1121 181.982 41.208 180.756 41.9971C179.311 43.0054 178.085 43.5753 177.035 43.7506C176.028 43.926 174.977 43.7506 174.014 43.3123C172.964 42.7862 172.044 42.0409 171.344 41.0765L175.109 37.5694C175.415 38.0517 175.809 38.49 176.247 38.8407C176.553 39.0599 176.903 39.1915 177.297 39.1915C177.604 39.1915 177.91 39.0599 178.129 38.8846C178.567 38.6216 178.873 38.0955 178.83 37.5694C178.698 36.8242 178.392 36.0789 177.91 35.509L171.782 26.8729ZM184.915 31.7389L188.898 28.5826C189.336 29.1087 189.905 29.5032 190.518 29.7224C191.394 29.9854 192.313 29.8101 193.057 29.2402C193.583 28.8895 194.02 28.4072 194.195 27.7935C194.458 27.0044 194.02 26.1276 193.232 25.8646C193.101 25.8208 192.97 25.7769 192.838 25.7769C192.313 25.7331 191.394 25.9523 190.037 26.5222C187.804 27.4428 186.053 27.7935 184.74 27.662C183.47 27.5305 182.288 26.8729 181.588 25.7769C181.062 25.0317 180.8 24.1549 180.756 23.2782C180.756 22.2699 181.018 21.2616 181.588 20.4287C182.419 19.245 183.426 18.2368 184.652 17.4477C186.491 16.1764 188.11 15.5626 189.511 15.5626C190.912 15.5626 192.225 16.2202 193.451 17.5792L189.511 20.6917C188.723 19.6834 187.235 19.4642 186.228 20.2533L186.097 20.3848C185.659 20.6479 185.352 21.0424 185.177 21.5246C185.046 21.8753 185.134 22.2699 185.352 22.5767C185.528 22.7959 185.79 22.9713 186.097 22.9713C186.447 23.0151 187.06 22.8398 187.935 22.4452C190.124 21.5246 191.788 20.9986 192.926 20.8232C193.889 20.6479 194.896 20.7355 195.815 21.1301C196.647 21.4808 197.347 22.0945 197.829 22.8398C198.442 23.7165 198.792 24.7687 198.836 25.8646C198.88 27.0044 198.573 28.1004 197.96 29.0648C197.172 30.2484 196.165 31.2567 194.983 32.0458C192.576 33.7117 190.606 34.4131 189.03 34.1501C187.322 33.887 185.922 33.0103 184.915 31.7389Z" fill="black"/>
</g>
<defs>
<clipPath id="clip0_17_181">
<rect width="242" height="90" fill="white"/>
</clipPath>
</defs>
</svg>
